<svg width="1920" height="561" viewBox="0 0 1920 561" fill="none" xmlns="http://www.w3.org/2000/svg">
  <path fill-rule="evenodd" clip-rule="evenodd"
        d="M870.074 35.898C1033.83 45.9043 1226 27.1605 1350.24 72.2026C1475.24 117.514 1406.63 208.134 1501.01 264.624C1608.04 328.684 1861.09 341.033 1922.3 414.587C1983.29 487.878 1925.61 576.697 1812.13 638.497C1700.72 699.164 1489.56 704.353 1325.71 739.476C1170.07 772.838 1043.22 828.707 870.074 840.433C683.7 853.055 492.021 838.673 318.806 807.668C133.607 774.518 -88.5225 736.433 -151.925 657.499C-216.875 576.637 1.2664 499.753 3.07333 414.587C4.85576 330.577 -200.409 254.571 -141.669 174.113C-83.2871 94.1465 107.389 34.321 299.896 8.02234C484.699 -17.2238 677.472 24.1292 870.074 35.898Z"
        fill="#EEEFF5"/>
</svg>
