<svg width="1298" height="390" viewBox="0 0 1298 390" fill="none" xmlns="http://www.w3.org/2000/svg">
  <path fill-rule="evenodd" clip-rule="evenodd"
        d="M748.555 724.131C623.55 718.366 490.319 729.96 381.997 698.275C273.869 666.646 222.426 605.167 158.183 551.439C93.0678 496.982 -19.5081 443.662 2.90549 381.231C25.8836 317.226 187.978 293.883 268.933 242.952C335.163 201.285 344.678 138.205 434.57 109.657C525.074 80.9151 645.396 105.298 748.555 90.6349C902.334 68.7762 1030.93 -16.535 1186.04 2.84011C1331.07 20.9558 1429.8 104.641 1451.8 178.48C1473.45 251.157 1328.91 309.313 1298.76 381.231C1276.63 434.013 1321.46 487.389 1300.13 540.253C1272.41 608.934 1273.09 695.09 1156.41 733.99C1041.24 772.382 886.437 730.49 748.555 724.131Z"
        fill="#BAC0D8"/>
</svg>
